Coordinates
version=1
nRows=65
nColumns=12
inDegrees=yes

Units are S.I. units (second, meters, Newtons, ...)
Angles are in degrees

endheader
time	SC_y	SC_z	SC_x	AC_y	AC_z	AC_x	GH_y	GH_z	GH_yy	EL_x	PS_y
       0.0              -18.52          21.51          53.81          44.37         -17.71          8.335         -42.61         -10.37         -126.6          98.15          58.68
   0.04594              -18.52          21.52          53.81          44.37         -17.71          8.331         -42.63         -10.37         -126.6          98.14          58.69
   0.09188              -18.53          21.52          53.81          44.37         -17.71          8.327         -42.64         -10.37         -126.5          98.14           58.7
    0.1378              -18.53          21.52          53.81          44.37          -17.7          8.322         -42.66         -10.37         -126.5          98.14          58.71
    0.1838              -18.54          21.52           53.8          44.37          -17.7          8.317         -42.67         -10.37         -126.4          98.14          58.73
    0.2297              -18.55          21.53           53.8          44.37         -17.69          8.312         -42.69         -10.36         -126.4          98.14          58.74
    0.2756              -18.55          21.53           53.8          44.37         -17.69          8.306         -42.71         -10.36         -126.3          98.14          58.76
    0.3216              -18.56          21.53           53.8          44.37         -17.68            8.3         -42.73         -10.36         -126.3          98.13          58.78
    0.3675              -18.57          21.53           53.8          44.37         -17.68          8.294         -42.75         -10.36         -126.2          98.13          58.79
    0.4135              -18.57          21.54           53.8          44.37         -17.67          8.287         -42.77         -10.35         -126.1          98.13          58.81
    0.4594              -18.58          21.54           53.8          44.37         -17.67          8.279          -42.8         -10.35         -126.0          98.13          58.83
    0.5054              -18.59          21.55           53.8          44.37         -17.66          8.271         -42.83         -10.35         -125.9          98.12          58.86
    0.5513               -18.6          21.55           53.8          44.38         -17.65          8.263         -42.85         -10.34         -125.9          98.12          58.88
    0.5972              -18.61          21.55           53.8          44.38         -17.64          8.253         -42.89         -10.34         -125.8          98.12          58.91
    0.6432              -18.62          21.56           53.8          44.38         -17.64          8.243         -42.92         -10.33         -125.7          98.11          58.93
    0.6891              -18.64          21.56           53.8          44.38         -17.63          8.232         -42.96         -10.33         -125.5          98.11          58.97
    0.7351              -18.65          21.57           53.8          44.38         -17.62          8.221          -43.0         -10.32         -125.4           98.1           59.0
     0.781              -18.66          21.58           53.8          44.38         -17.61          8.208         -43.04         -10.32         -125.3           98.1          59.03
    0.8269              -18.68          21.58           53.8          44.38         -17.59          8.193         -43.09         -10.31         -125.1          98.09          59.07
    0.8729               -18.7          21.59           53.8          44.38         -17.58          8.178         -43.14          -10.3         -125.0          98.09          59.12
    0.9188              -18.72           21.6           53.8          44.38         -17.57          8.161         -43.19          -10.3         -124.8          98.08          59.16
    0.9648              -18.74          21.61           53.8          44.39         -17.55          8.142         -43.26         -10.29         -124.6          98.07          59.22
     1.011              -18.76          21.62           53.8          44.39         -17.53          8.122         -43.33         -10.28         -124.4          98.07          59.27
     1.057              -18.79          21.63           53.8          44.39         -17.51          8.099          -43.4         -10.27         -124.1          98.06          59.34
     1.103              -18.82          21.64           53.8          44.39         -17.49          8.073         -43.49         -10.26         -123.9          98.05          59.41
     1.149              -18.85          21.66           53.8          44.39         -17.47          8.045         -43.58         -10.25         -123.6          98.04          59.49
     1.194              -18.89          21.67           53.8           44.4         -17.44          8.013         -43.69         -10.23         -123.2          98.03          59.58
      1.24              -18.93          21.69           53.8           44.4         -17.41          7.977         -43.81         -10.22         -122.9          98.01          59.68
     1.286              -18.97          21.71           53.8           44.4         -17.37          7.937         -43.94          -10.2         -122.4           98.0          59.79
     1.332              -19.03          21.73          53.79          44.41         -17.33          7.891         -44.09         -10.18         -122.0          97.98          59.92
     1.378              -19.09          21.76          53.79          44.41         -17.29          7.839         -44.27         -10.15         -121.4          97.96          60.06
     1.424              -19.15          21.79          53.79          44.42         -17.24          7.778         -44.47         -10.13         -120.8          97.94          60.23
      1.47              -19.23          21.82          53.79          44.42         -17.18          7.709          -44.7          -10.1         -120.1          97.91          60.43
     1.516              -19.32          21.86          53.79          44.43         -17.11          7.628         -44.97         -10.06         -119.2          97.88          60.65
     1.562              -19.43           21.9          53.79          44.44         -17.03          7.534         -45.28         -10.02         -118.2          97.85          60.91
     1.608              -19.56          21.96          53.78          44.45         -16.93          7.423         -45.65         -9.971         -117.1          97.81          61.22
     1.654              -19.71          22.02          53.78          44.46         -16.82          7.291          -46.1         -9.912         -115.7          97.76          61.59
       1.7              -19.89           22.1          53.78          44.47         -16.68          7.132         -46.62         -9.842         -114.0           97.7          62.04
     1.746              -20.11          22.19          53.77          44.49         -16.51           6.94         -47.26         -9.757         -112.0          97.63          62.57
     1.792              -20.38          22.31          53.76          44.51         -16.31          6.706         -48.04         -9.653         -109.6          97.54          63.23
     1.838              -20.71          22.45          53.76          44.53         -16.06          6.417         -49.01         -9.525         -106.5          97.43          64.03
     1.884              -21.12          22.62          53.75          44.56         -15.75          6.057         -50.21         -9.366         -102.8           97.3          65.04
      1.93              -21.63          22.85          53.74           44.6         -15.36          5.602         -51.72         -9.165         -98.01          97.13          66.31
     1.975              -22.29          23.13          53.72          44.65         -14.87          5.025         -53.65         -8.909         -91.96          96.91          67.92
     2.021              -23.13          23.49           53.7          44.71         -14.23          4.286         -56.11         -8.582         -84.23          96.64          69.98
     2.067              -24.22          23.95          53.68          44.79         -13.42          3.338         -59.27         -8.162          -74.3          96.29          72.63
     2.113               -25.6          24.54          53.65          44.89         -12.37          2.127         -63.31         -7.626         -61.62          95.84          76.01
     2.159              -27.33          25.28          53.61          45.02         -11.06         0.6039         -68.39         -6.952         -45.67          95.27          80.26
     2.205              -29.45          26.19          53.56          45.18         -9.466         -1.252         -74.57          -6.13         -26.24          94.58          85.44
     2.251               -31.9          27.23          53.51          45.36         -7.615         -3.403         -81.74         -5.178         -3.718          93.78          91.44
     2.297              -34.56          28.37          53.45          45.55         -5.611         -5.733         -89.51         -4.146          20.67          92.91          97.94
     2.343              -37.21           29.5          53.39          45.75         -3.607         -8.062         -97.27         -3.115          45.06          92.04          104.4
     2.389              -39.66          30.55          53.34          45.93         -1.756         -10.21         -104.4         -2.163          67.58          91.24          110.4
     2.435              -41.78          31.46          53.29          46.09        -0.1587         -12.07         -110.6         -1.341          87.01          90.55          115.6
     2.481              -43.52           32.2          53.25          46.21          1.152         -13.59         -115.7         -0.667          103.0          89.98          119.9
     2.527               -44.9          32.79          53.22          46.32          2.194          -14.8         -119.7        -0.1308          115.6          89.53          123.3
     2.573              -45.98          33.25           53.2           46.4           3.01         -15.75         -122.9          0.289          125.6          89.18          125.9
     2.619              -46.82          33.61          53.18          46.46          3.645         -16.49         -125.4         0.6161          133.3           88.9          128.0
     2.665              -47.48          33.89          53.16          46.51          4.142         -17.07         -127.3         0.8717          139.3          88.69          129.6
     2.711               -48.0          34.11          53.15          46.54          4.533         -17.52         -128.8          1.073          144.1          88.52          130.8
     2.756              -48.41          34.29          53.14          46.57          4.843         -17.88         -130.0          1.232          147.9          88.39          131.9
     2.802              -48.74          34.43          53.14           46.6          5.092         -18.17         -131.0           1.36          150.9          88.28          132.7
     2.848               -49.0          34.54          53.13          46.62          5.293         -18.41         -131.8          1.464          153.4          88.19          133.3
     2.894              -49.22          34.64          53.13          46.63          5.458          -18.6         -132.4          1.549          155.4          88.12          133.8
      2.94               -49.4          34.71          53.12          46.65          5.595         -18.76         -132.9          1.619          157.0          88.06          134.3
